<svg width="51" height="51" viewBox="0 0 51 51" fill="none" xmlns="http://www.w3.org/2000/svg">
<path d="M11.4655 39.9218H22.6536L16.7089 44.4481C15.1311 45.6434 13.2186 46.2968 11.2423 46.2968H5.85226C5.03945 46.2968 4.68883 45.2609 5.34226 44.7668L11.4655 39.9218V39.9218Z" fill="#A0A7FF"/>
<path d="M11.4655 39.9218H22.6536L16.7089 44.4481C15.1311 45.6434 13.2186 46.2968 11.2423 46.2968H5.85226C5.03945 46.2968 4.68883 45.2609 5.34226 44.7668L11.4655 39.9218V39.9218Z" fill="url(#paint0_linear_9_313)"/>
<path d="M11.4655 39.9218H22.6536L16.7089 44.4481C15.1311 45.6434 13.2186 46.2968 11.2423 46.2968H5.85226C5.03945 46.2968 4.68883 45.2609 5.34226 44.7668L11.4655 39.9218V39.9218Z" fill="url(#paint1_radial_9_313)"/>
<path d="M46.2188 26.3256C46.155 19.5362 43.4839 14.331 38.3839 10.5857C38.1687 10.4279 38.1544 10.1426 38.3839 9.87647C39.831 8.19666 39.7322 5.92397 38.9481 4.09913C38.6979 3.5206 38.0014 2.42569 37.0914 3.21619C36.1829 4.00669 34.6689 5.92557 34.6689 5.92557C33.8672 7.05075 33.8305 7.89704 34.0919 9.29157C34.0919 9.29157 34.1397 9.6151 34.229 9.87647C34.315 10.1378 33.8991 9.87647 33.3445 9.72666C32.7898 9.57844 31.6009 9.29157 29.9577 10.9108C29.9577 10.9108 27.7982 13.2441 27.6165 14.0473C27.4364 14.8506 28.1871 15.088 28.4771 15.1566C31.1706 15.7909 32.8408 15.5359 34.8442 13.5309C35.0625 13.3827 35.2506 13.3748 35.4498 13.625C38.3871 17.3352 39.7912 22.6217 39.0039 27.2356C38.293 31.4208 32.6464 29.8366 32.9157 25.9925C32.9157 20.4781 28.4373 15.9997 22.9229 15.9997H10.8088C7.06351 15.9997 3.38195 19.5697 3.38195 23.809C3.03929 36.1861 12.3898 48.9504 25.5271 48.0404C40.4064 47.0108 46.2188 40.3219 46.2188 26.3256Z" fill="#44C0FF"/>
<path d="M46.2188 26.3256C46.155 19.5362 43.4839 14.331 38.3839 10.5857C38.1687 10.4279 38.1544 10.1426 38.3839 9.87647C39.831 8.19666 39.7322 5.92397 38.9481 4.09913C38.6979 3.5206 38.0014 2.42569 37.0914 3.21619C36.1829 4.00669 34.6689 5.92557 34.6689 5.92557C33.8672 7.05075 33.8305 7.89704 34.0919 9.29157C34.0919 9.29157 34.1397 9.6151 34.229 9.87647C34.315 10.1378 33.8991 9.87647 33.3445 9.72666C32.7898 9.57844 31.6009 9.29157 29.9577 10.9108C29.9577 10.9108 27.7982 13.2441 27.6165 14.0473C27.4364 14.8506 28.1871 15.088 28.4771 15.1566C31.1706 15.7909 32.8408 15.5359 34.8442 13.5309C35.0625 13.3827 35.2506 13.3748 35.4498 13.625C38.3871 17.3352 39.7912 22.6217 39.0039 27.2356C38.293 31.4208 32.6464 29.8366 32.9157 25.9925C32.9157 20.4781 28.4373 15.9997 22.9229 15.9997H10.8088C7.06351 15.9997 3.38195 19.5697 3.38195 23.809C3.03929 36.1861 12.3898 48.9504 25.5271 48.0404C40.4064 47.0108 46.2188 40.3219 46.2188 26.3256Z" fill="url(#paint2_radial_9_313)"/>
<path d="M46.2188 26.3256C46.155 19.5362 43.4839 14.331 38.3839 10.5857C38.1687 10.4279 38.1544 10.1426 38.3839 9.87647C39.831 8.19666 39.7322 5.92397 38.9481 4.09913C38.6979 3.5206 38.0014 2.42569 37.0914 3.21619C36.1829 4.00669 34.6689 5.92557 34.6689 5.92557C33.8672 7.05075 33.8305 7.89704 34.0919 9.29157C34.0919 9.29157 34.1397 9.6151 34.229 9.87647C34.315 10.1378 33.8991 9.87647 33.3445 9.72666C32.7898 9.57844 31.6009 9.29157 29.9577 10.9108C29.9577 10.9108 27.7982 13.2441 27.6165 14.0473C27.4364 14.8506 28.1871 15.088 28.4771 15.1566C31.1706 15.7909 32.8408 15.5359 34.8442 13.5309C35.0625 13.3827 35.2506 13.3748 35.4498 13.625C38.3871 17.3352 39.7912 22.6217 39.0039 27.2356C38.293 31.4208 32.6464 29.8366 32.9157 25.9925C32.9157 20.4781 28.4373 15.9997 22.9229 15.9997H10.8088C7.06351 15.9997 3.38195 19.5697 3.38195 23.809C3.03929 36.1861 12.3898 48.9504 25.5271 48.0404C40.4064 47.0108 46.2188 40.3219 46.2188 26.3256Z" fill="url(#paint3_radial_9_313)"/>
<path d="M46.2188 26.3256C46.155 19.5362 43.4839 14.331 38.3839 10.5857C38.1687 10.4279 38.1544 10.1426 38.3839 9.87647C39.831 8.19666 39.7322 5.92397 38.9481 4.09913C38.6979 3.5206 38.0014 2.42569 37.0914 3.21619C36.1829 4.00669 34.6689 5.92557 34.6689 5.92557C33.8672 7.05075 33.8305 7.89704 34.0919 9.29157C34.0919 9.29157 34.1397 9.6151 34.229 9.87647C34.315 10.1378 33.8991 9.87647 33.3445 9.72666C32.7898 9.57844 31.6009 9.29157 29.9577 10.9108C29.9577 10.9108 27.7982 13.2441 27.6165 14.0473C27.4364 14.8506 28.1871 15.088 28.4771 15.1566C31.1706 15.7909 32.8408 15.5359 34.8442 13.5309C35.0625 13.3827 35.2506 13.3748 35.4498 13.625C38.3871 17.3352 39.7912 22.6217 39.0039 27.2356C38.293 31.4208 32.6464 29.8366 32.9157 25.9925C32.9157 20.4781 28.4373 15.9997 22.9229 15.9997H10.8088C7.06351 15.9997 3.38195 19.5697 3.38195 23.809C3.03929 36.1861 12.3898 48.9504 25.5271 48.0404C40.4064 47.0108 46.2188 40.3219 46.2188 26.3256Z" fill="url(#paint4_radial_9_313)"/>
<path d="M46.2188 26.3256C46.155 19.5362 43.4839 14.331 38.3839 10.5857C38.1687 10.4279 38.1544 10.1426 38.3839 9.87647C39.831 8.19666 39.7322 5.92397 38.9481 4.09913C38.6979 3.5206 38.0014 2.42569 37.0914 3.21619C36.1829 4.00669 34.6689 5.92557 34.6689 5.92557C33.8672 7.05075 33.8305 7.89704 34.0919 9.29157C34.0919 9.29157 34.1397 9.6151 34.229 9.87647C34.315 10.1378 33.8991 9.87647 33.3445 9.72666C32.7898 9.57844 31.6009 9.29157 29.9577 10.9108C29.9577 10.9108 27.7982 13.2441 27.6165 14.0473C27.4364 14.8506 28.1871 15.088 28.4771 15.1566C31.1706 15.7909 32.8408 15.5359 34.8442 13.5309C35.0625 13.3827 35.2506 13.3748 35.4498 13.625C38.3871 17.3352 39.7912 22.6217 39.0039 27.2356C38.293 31.4208 32.6464 29.8366 32.9157 25.9925C32.9157 20.4781 28.4373 15.9997 22.9229 15.9997H10.8088C7.06351 15.9997 3.38195 19.5697 3.38195 23.809C3.03929 36.1861 12.3898 48.9504 25.5271 48.0404C40.4064 47.0108 46.2188 40.3219 46.2188 26.3256Z" fill="url(#paint5_radial_9_313)"/>
<path d="M46.2188 26.3256C46.155 19.5362 43.4839 14.331 38.3839 10.5857C38.1687 10.4279 38.1544 10.1426 38.3839 9.87647C39.831 8.19666 39.7322 5.92397 38.9481 4.09913C38.6979 3.5206 38.0014 2.42569 37.0914 3.21619C36.1829 4.00669 34.6689 5.92557 34.6689 5.92557C33.8672 7.05075 33.8305 7.89704 34.0919 9.29157C34.0919 9.29157 34.1397 9.6151 34.229 9.87647C34.315 10.1378 33.8991 9.87647 33.3445 9.72666C32.7898 9.57844 31.6009 9.29157 29.9577 10.9108C29.9577 10.9108 27.7982 13.2441 27.6165 14.0473C27.4364 14.8506 28.1871 15.088 28.4771 15.1566C31.1706 15.7909 32.8408 15.5359 34.8442 13.5309C35.0625 13.3827 35.2506 13.3748 35.4498 13.625C38.3871 17.3352 39.7912 22.6217 39.0039 27.2356C38.293 31.4208 32.6464 29.8366 32.9157 25.9925C32.9157 20.4781 28.4373 15.9997 22.9229 15.9997H10.8088C7.06351 15.9997 3.38195 19.5697 3.38195 23.809C3.03929 36.1861 12.3898 48.9504 25.5271 48.0404C40.4064 47.0108 46.2188 40.3219 46.2188 26.3256Z" fill="url(#paint6_radial_9_313)"/>
<path d="M46.2188 26.3256C46.155 19.5362 43.4839 14.331 38.3839 10.5857C38.1687 10.4279 38.1544 10.1426 38.3839 9.87647C39.831 8.19666 39.7322 5.92397 38.9481 4.09913C38.6979 3.5206 38.0014 2.42569 37.0914 3.21619C36.1829 4.00669 34.6689 5.92557 34.6689 5.92557C33.8672 7.05075 33.8305 7.89704 34.0919 9.29157C34.0919 9.29157 34.1397 9.6151 34.229 9.87647C34.315 10.1378 33.8991 9.87647 33.3445 9.72666C32.7898 9.57844 31.6009 9.29157 29.9577 10.9108C29.9577 10.9108 27.7982 13.2441 27.6165 14.0473C27.4364 14.8506 28.1871 15.088 28.4771 15.1566C31.1706 15.7909 32.8408 15.5359 34.8442 13.5309C35.0625 13.3827 35.2506 13.3748 35.4498 13.625C38.3871 17.3352 39.7912 22.6217 39.0039 27.2356C38.293 31.4208 32.6464 29.8366 32.9157 25.9925C32.9157 20.4781 28.4373 15.9997 22.9229 15.9997H10.8088C7.06351 15.9997 3.38195 19.5697 3.38195 23.809C3.03929 36.1861 12.3898 48.9504 25.5271 48.0404C40.4064 47.0108 46.2188 40.3219 46.2188 26.3256Z" fill="url(#paint7_radial_9_313)"/>
<path d="M46.2188 26.3256C46.155 19.5362 43.4839 14.331 38.3839 10.5857C38.1687 10.4279 38.1544 10.1426 38.3839 9.87647C39.831 8.19666 39.7322 5.92397 38.9481 4.09913C38.6979 3.5206 38.0014 2.42569 37.0914 3.21619C36.1829 4.00669 34.6689 5.92557 34.6689 5.92557C33.8672 7.05075 33.8305 7.89704 34.0919 9.29157C34.0919 9.29157 34.1397 9.6151 34.229 9.87647C34.315 10.1378 33.8991 9.87647 33.3445 9.72666C32.7898 9.57844 31.6009 9.29157 29.9577 10.9108C29.9577 10.9108 27.7982 13.2441 27.6165 14.0473C27.4364 14.8506 28.1871 15.088 28.4771 15.1566C31.1706 15.7909 32.8408 15.5359 34.8442 13.5309C35.0625 13.3827 35.2506 13.3748 35.4498 13.625C38.3871 17.3352 39.7912 22.6217 39.0039 27.2356C38.293 31.4208 32.6464 29.8366 32.9157 25.9925C32.9157 20.4781 28.4373 15.9997 22.9229 15.9997H10.8088C7.06351 15.9997 3.38195 19.5697 3.38195 23.809C3.03929 36.1861 12.3898 48.9504 25.5271 48.0404C40.4064 47.0108 46.2188 40.3219 46.2188 26.3256Z" fill="url(#paint8_radial_9_313)"/>
<path d="M46.2188 26.3256C46.155 19.5362 43.4839 14.331 38.3839 10.5857C38.1687 10.4279 38.1544 10.1426 38.3839 9.87647C39.831 8.19666 39.7322 5.92397 38.9481 4.09913C38.6979 3.5206 38.0014 2.42569 37.0914 3.21619C36.1829 4.00669 34.6689 5.92557 34.6689 5.92557C33.8672 7.05075 33.8305 7.89704 34.0919 9.29157C34.0919 9.29157 34.1397 9.6151 34.229 9.87647C34.315 10.1378 33.8991 9.87647 33.3445 9.72666C32.7898 9.57844 31.6009 9.29157 29.9577 10.9108C29.9577 10.9108 27.7982 13.2441 27.6165 14.0473C27.4364 14.8506 28.1871 15.088 28.4771 15.1566C31.1706 15.7909 32.8408 15.5359 34.8442 13.5309C35.0625 13.3827 35.2506 13.3748 35.4498 13.625C38.3871 17.3352 39.7912 22.6217 39.0039 27.2356C38.293 31.4208 32.6464 29.8366 32.9157 25.9925C32.9157 20.4781 28.4373 15.9997 22.9229 15.9997H10.8088C7.06351 15.9997 3.38195 19.5697 3.38195 23.809C3.03929 36.1861 12.3898 48.9504 25.5271 48.0404C40.4064 47.0108 46.2188 40.3219 46.2188 26.3256Z" fill="url(#paint9_radial_9_313)" fill-opacity="0.5"/>
<path d="M46.2188 26.3256C46.155 19.5362 43.4839 14.331 38.3839 10.5857C38.1687 10.4279 38.1544 10.1426 38.3839 9.87647C39.831 8.19666 39.7322 5.92397 38.9481 4.09913C38.6979 3.5206 38.0014 2.42569 37.0914 3.21619C36.1829 4.00669 34.6689 5.92557 34.6689 5.92557C33.8672 7.05075 33.8305 7.89704 34.0919 9.29157C34.0919 9.29157 34.1397 9.6151 34.229 9.87647C34.315 10.1378 33.8991 9.87647 33.3445 9.72666C32.7898 9.57844 31.6009 9.29157 29.9577 10.9108C29.9577 10.9108 27.7982 13.2441 27.6165 14.0473C27.4364 14.8506 28.1871 15.088 28.4771 15.1566C31.1706 15.7909 32.8408 15.5359 34.8442 13.5309C35.0625 13.3827 35.2506 13.3748 35.4498 13.625C38.3871 17.3352 39.7912 22.6217 39.0039 27.2356C38.293 31.4208 32.6464 29.8366 32.9157 25.9925C32.9157 20.4781 28.4373 15.9997 22.9229 15.9997H10.8088C7.06351 15.9997 3.38195 19.5697 3.38195 23.809C3.03929 36.1861 12.3898 48.9504 25.5271 48.0404C40.4064 47.0108 46.2188 40.3219 46.2188 26.3256Z" fill="url(#paint10_radial_9_313)"/>
<path d="M46.2188 26.3256C46.155 19.5362 43.4839 14.331 38.3839 10.5857C38.1687 10.4279 38.1544 10.1426 38.3839 9.87647C39.831 8.19666 39.7322 5.92397 38.9481 4.09913C38.6979 3.5206 38.0014 2.42569 37.0914 3.21619C36.1829 4.00669 34.6689 5.92557 34.6689 5.92557C33.8672 7.05075 33.8305 7.89704 34.0919 9.29157C34.0919 9.29157 34.1397 9.6151 34.229 9.87647C34.315 10.1378 33.8991 9.87647 33.3445 9.72666C32.7898 9.57844 31.6009 9.29157 29.9577 10.9108C29.9577 10.9108 27.7982 13.2441 27.6165 14.0473C27.4364 14.8506 28.1871 15.088 28.4771 15.1566C31.1706 15.7909 32.8408 15.5359 34.8442 13.5309C35.0625 13.3827 35.2506 13.3748 35.4498 13.625C38.3871 17.3352 39.7912 22.6217 39.0039 27.2356C38.293 31.4208 32.6464 29.8366 32.9157 25.9925C32.9157 20.4781 28.4373 15.9997 22.9229 15.9997H10.8088C7.06351 15.9997 3.38195 19.5697 3.38195 23.809C3.03929 36.1861 12.3898 48.9504 25.5271 48.0404C40.4064 47.0108 46.2188 40.3219 46.2188 26.3256Z" fill="url(#paint11_radial_9_313)"/>
<path d="M46.2188 26.3256C46.155 19.5362 43.4839 14.331 38.3839 10.5857C38.1687 10.4279 38.1544 10.1426 38.3839 9.87647C39.831 8.19666 39.7322 5.92397 38.9481 4.09913C38.6979 3.5206 38.0014 2.42569 37.0914 3.21619C36.1829 4.00669 34.6689 5.92557 34.6689 5.92557C33.8672 7.05075 33.8305 7.89704 34.0919 9.29157C34.0919 9.29157 34.1397 9.6151 34.229 9.87647C34.315 10.1378 33.8991 9.87647 33.3445 9.72666C32.7898 9.57844 31.6009 9.29157 29.9577 10.9108C29.9577 10.9108 27.7982 13.2441 27.6165 14.0473C27.4364 14.8506 28.1871 15.088 28.4771 15.1566C31.1706 15.7909 32.8408 15.5359 34.8442 13.5309C35.0625 13.3827 35.2506 13.3748 35.4498 13.625C38.3871 17.3352 39.7912 22.6217 39.0039 27.2356C38.293 31.4208 32.6464 29.8366 32.9157 25.9925C32.9157 20.4781 28.4373 15.9997 22.9229 15.9997H10.8088C7.06351 15.9997 3.38195 19.5697 3.38195 23.809C3.03929 36.1861 12.3898 48.9504 25.5271 48.0404C40.4064 47.0108 46.2188 40.3219 46.2188 26.3256Z" fill="url(#paint12_radial_9_313)"/>
<g filter="url(#filter0_f_9_313)">
<path d="M31.7762 29.6119C30.557 27.7536 29.6884 24.7223 29.3473 22.083C29.1832 20.8287 28.16 19.8008 26.8945 19.8008C25.6291 19.8008 24.59 20.8319 24.7047 22.091C25.4378 30.1314 29.9928 33.4337 32.8711 33.8449C35.3813 34.2035 37.8356 32.4998 38.4492 31.2056C36.8873 31.6869 33.3683 32.0423 31.7746 29.6119H31.7762Z" fill="url(#paint13_linear_9_313)"/>
</g>
<path d="M6.38138 14.4218C6.80407 14.4218 7.20944 14.2539 7.50833 13.955C7.80722 13.6562 7.97513 13.2508 7.97513 12.8281C7.97513 12.4054 7.80722 12 7.50833 11.7011C7.20944 11.4023 6.80407 11.2343 6.38138 11.2343C5.95869 11.2343 5.55331 11.4023 5.25443 11.7011C4.95554 12 4.78763 12.4054 4.78763 12.8281C4.78763 13.2508 4.95554 13.6562 5.25443 13.955C5.55331 14.2539 5.95869 14.4218 6.38138 14.4218V14.4218Z" fill="url(#paint14_radial_9_313)"/>
<path d="M6.38138 14.4218C6.80407 14.4218 7.20944 14.2539 7.50833 13.955C7.80722 13.6562 7.97513 13.2508 7.97513 12.8281C7.97513 12.4054 7.80722 12 7.50833 11.7011C7.20944 11.4023 6.80407 11.2343 6.38138 11.2343C5.95869 11.2343 5.55331 11.4023 5.25443 11.7011C4.95554 12 4.78763 12.4054 4.78763 12.8281C4.78763 13.2508 4.95554 13.6562 5.25443 13.955C5.55331 14.2539 5.95869 14.4218 6.38138 14.4218V14.4218Z" fill="url(#paint15_radial_9_313)"/>
<path d="M28.8405 6.65232C29.0952 6.65232 29.3474 6.60215 29.5828 6.50468C29.8181 6.4072 30.0319 6.26433 30.212 6.08423C30.3921 5.90412 30.535 5.6903 30.6325 5.45498C30.7299 5.21965 30.7801 4.96744 30.7801 4.71273C30.7801 4.45801 30.7299 4.2058 30.6325 3.97048C30.535 3.73515 30.3921 3.52133 30.212 3.34123C30.0319 3.16112 29.8181 3.01825 29.5828 2.92078C29.3474 2.8233 29.0952 2.77313 28.8405 2.77313C28.3261 2.77313 27.8327 2.97748 27.469 3.34123C27.1053 3.70497 26.9009 4.19831 26.9009 4.71273C26.9009 5.22714 27.1053 5.72048 27.469 6.08423C27.8327 6.44797 28.3261 6.65232 28.8405 6.65232V6.65232Z" fill="url(#paint16_radial_9_313)"/>
<path d="M28.8405 6.65232C29.0952 6.65232 29.3474 6.60215 29.5828 6.50468C29.8181 6.4072 30.0319 6.26433 30.212 6.08423C30.3921 5.90412 30.535 5.6903 30.6325 5.45498C30.7299 5.21965 30.7801 4.96744 30.7801 4.71273C30.7801 4.45801 30.7299 4.2058 30.6325 3.97048C30.535 3.73515 30.3921 3.52133 30.212 3.34123C30.0319 3.16112 29.8181 3.01825 29.5828 2.92078C29.3474 2.8233 29.0952 2.77313 28.8405 2.77313C28.3261 2.77313 27.8327 2.97748 27.469 3.34123C27.1053 3.70497 26.9009 4.19831 26.9009 4.71273C26.9009 5.22714 27.1053 5.72048 27.469 6.08423C27.8327 6.44797 28.3261 6.65232 28.8405 6.65232V6.65232Z" fill="url(#paint17_radial_9_313)"/>
<path d="M28.8405 6.65232C29.0952 6.65232 29.3474 6.60215 29.5828 6.50468C29.8181 6.4072 30.0319 6.26433 30.212 6.08423C30.3921 5.90412 30.535 5.6903 30.6325 5.45498C30.7299 5.21965 30.7801 4.96744 30.7801 4.71273C30.7801 4.45801 30.7299 4.2058 30.6325 3.97048C30.535 3.73515 30.3921 3.52133 30.212 3.34123C30.0319 3.16112 29.8181 3.01825 29.5828 2.92078C29.3474 2.8233 29.0952 2.77313 28.8405 2.77313C28.3261 2.77313 27.8327 2.97748 27.469 3.34123C27.1053 3.70497 26.9009 4.19831 26.9009 4.71273C26.9009 5.22714 27.1053 5.72048 27.469 6.08423C27.8327 6.44797 28.3261 6.65232 28.8405 6.65232V6.65232Z" fill="url(#paint18_radial_9_313)"/>
<path d="M20.7251 3.26559C19.4979 3.26559 18.3823 3.77559 17.5376 4.58841C16.6929 3.77559 15.5773 3.26559 14.3501 3.26559C11.7045 3.26559 9.56888 5.40122 9.56888 8.04684V8.79591C9.56888 10.1347 10.6686 11.2662 12.0073 11.2343C13.2983 11.2025 14.3501 10.1506 14.3501 8.84372C14.3501 8.41341 14.7167 8.04684 15.147 8.04684C15.5614 8.04684 15.8961 8.34966 15.9439 8.73216L16.6292 13.625C16.6929 14.0872 17.0754 14.4218 17.5376 14.4218C17.9998 14.4218 18.3823 14.0872 18.4461 13.625L19.1314 8.73216C19.1792 8.34966 19.5139 8.04684 19.9283 8.04684C20.3586 8.04684 20.7251 8.41341 20.7251 8.84372C20.7251 10.1506 21.777 11.2025 23.0679 11.2343C24.4067 11.2662 25.5064 10.1347 25.5064 8.79591V8.04684C25.5064 5.40122 23.3708 3.26559 20.7251 3.26559V3.26559Z" fill="url(#paint19_linear_9_313)"/>
<path d="M20.7251 3.26559C19.4979 3.26559 18.3823 3.77559 17.5376 4.58841C16.6929 3.77559 15.5773 3.26559 14.3501 3.26559C11.7045 3.26559 9.56888 5.40122 9.56888 8.04684V8.79591C9.56888 10.1347 10.6686 11.2662 12.0073 11.2343C13.2983 11.2025 14.3501 10.1506 14.3501 8.84372C14.3501 8.41341 14.7167 8.04684 15.147 8.04684C15.5614 8.04684 15.8961 8.34966 15.9439 8.73216L16.6292 13.625C16.6929 14.0872 17.0754 14.4218 17.5376 14.4218C17.9998 14.4218 18.3823 14.0872 18.4461 13.625L19.1314 8.73216C19.1792 8.34966 19.5139 8.04684 19.9283 8.04684C20.3586 8.04684 20.7251 8.41341 20.7251 8.84372C20.7251 10.1506 21.777 11.2025 23.0679 11.2343C24.4067 11.2662 25.5064 10.1347 25.5064 8.79591V8.04684C25.5064 5.40122 23.3708 3.26559 20.7251 3.26559V3.26559Z" fill="url(#paint20_radial_9_313)"/>
<path d="M20.7251 3.26559C19.4979 3.26559 18.3823 3.77559 17.5376 4.58841C16.6929 3.77559 15.5773 3.26559 14.3501 3.26559C11.7045 3.26559 9.56888 5.40122 9.56888 8.04684V8.79591C9.56888 10.1347 10.6686 11.2662 12.0073 11.2343C13.2983 11.2025 14.3501 10.1506 14.3501 8.84372C14.3501 8.41341 14.7167 8.04684 15.147 8.04684C15.5614 8.04684 15.8961 8.34966 15.9439 8.73216L16.6292 13.625C16.6929 14.0872 17.0754 14.4218 17.5376 14.4218C17.9998 14.4218 18.3823 14.0872 18.4461 13.625L19.1314 8.73216C19.1792 8.34966 19.5139 8.04684 19.9283 8.04684C20.3586 8.04684 20.7251 8.41341 20.7251 8.84372C20.7251 10.1506 21.777 11.2025 23.0679 11.2343C24.4067 11.2662 25.5064 10.1347 25.5064 8.79591V8.04684C25.5064 5.40122 23.3708 3.26559 20.7251 3.26559V3.26559Z" fill="url(#paint21_radial_9_313)"/>
<path d="M20.7251 3.26559C19.4979 3.26559 18.3823 3.77559 17.5376 4.58841C16.6929 3.77559 15.5773 3.26559 14.3501 3.26559C11.7045 3.26559 9.56888 5.40122 9.56888 8.04684V8.79591C9.56888 10.1347 10.6686 11.2662 12.0073 11.2343C13.2983 11.2025 14.3501 10.1506 14.3501 8.84372C14.3501 8.41341 14.7167 8.04684 15.147 8.04684C15.5614 8.04684 15.8961 8.34966 15.9439 8.73216L16.6292 13.625C16.6929 14.0872 17.0754 14.4218 17.5376 14.4218C17.9998 14.4218 18.3823 14.0872 18.4461 13.625L19.1314 8.73216C19.1792 8.34966 19.5139 8.04684 19.9283 8.04684C20.3586 8.04684 20.7251 8.41341 20.7251 8.84372C20.7251 10.1506 21.777 11.2025 23.0679 11.2343C24.4067 11.2662 25.5064 10.1347 25.5064 8.79591V8.04684C25.5064 5.40122 23.3708 3.26559 20.7251 3.26559V3.26559Z" fill="url(#paint22_radial_9_313)"/>
<path d="M20.7251 3.26559C19.4979 3.26559 18.3823 3.77559 17.5376 4.58841C16.6929 3.77559 15.5773 3.26559 14.3501 3.26559C11.7045 3.26559 9.56888 5.40122 9.56888 8.04684V8.79591C9.56888 10.1347 10.6686 11.2662 12.0073 11.2343C13.2983 11.2025 14.3501 10.1506 14.3501 8.84372C14.3501 8.41341 14.7167 8.04684 15.147 8.04684C15.5614 8.04684 15.8961 8.34966 15.9439 8.73216L16.6292 13.625C16.6929 14.0872 17.0754 14.4218 17.5376 14.4218C17.9998 14.4218 18.3823 14.0872 18.4461 13.625L19.1314 8.73216C19.1792 8.34966 19.5139 8.04684 19.9283 8.04684C20.3586 8.04684 20.7251 8.41341 20.7251 8.84372C20.7251 10.1506 21.777 11.2025 23.0679 11.2343C24.4067 11.2662 25.5064 10.1347 25.5064 8.79591V8.04684C25.5064 5.40122 23.3708 3.26559 20.7251 3.26559V3.26559Z" fill="url(#paint23_radial_9_313)"/>
<path d="M20.7251 3.26559C19.4979 3.26559 18.3823 3.77559 17.5376 4.58841C16.6929 3.77559 15.5773 3.26559 14.3501 3.26559C11.7045 3.26559 9.56888 5.40122 9.56888 8.04684V8.79591C9.56888 10.1347 10.6686 11.2662 12.0073 11.2343C13.2983 11.2025 14.3501 10.1506 14.3501 8.84372C14.3501 8.41341 14.7167 8.04684 15.147 8.04684C15.5614 8.04684 15.8961 8.34966 15.9439 8.73216L16.6292 13.625C16.6929 14.0872 17.0754 14.4218 17.5376 14.4218C17.9998 14.4218 18.3823 14.0872 18.4461 13.625L19.1314 8.73216C19.1792 8.34966 19.5139 8.04684 19.9283 8.04684C20.3586 8.04684 20.7251 8.41341 20.7251 8.84372C20.7251 10.1506 21.777 11.2025 23.0679 11.2343C24.4067 11.2662 25.5064 10.1347 25.5064 8.79591V8.04684C25.5064 5.40122 23.3708 3.26559 20.7251 3.26559V3.26559Z" fill="url(#paint24_radial_9_313)"/>
<path d="M20.7251 3.26559C19.4979 3.26559 18.3823 3.77559 17.5376 4.58841C16.6929 3.77559 15.5773 3.26559 14.3501 3.26559C11.7045 3.26559 9.56888 5.40122 9.56888 8.04684V8.79591C9.56888 10.1347 10.6686 11.2662 12.0073 11.2343C13.2983 11.2025 14.3501 10.1506 14.3501 8.84372C14.3501 8.41341 14.7167 8.04684 15.147 8.04684C15.5614 8.04684 15.8961 8.34966 15.9439 8.73216L16.6292 13.625C16.6929 14.0872 17.0754 14.4218 17.5376 14.4218C17.9998 14.4218 18.3823 14.0872 18.4461 13.625L19.1314 8.73216C19.1792 8.34966 19.5139 8.04684 19.9283 8.04684C20.3586 8.04684 20.7251 8.41341 20.7251 8.84372C20.7251 10.1506 21.777 11.2025 23.0679 11.2343C24.4067 11.2662 25.5064 10.1347 25.5064 8.79591V8.04684C25.5064 5.40122 23.3708 3.26559 20.7251 3.26559V3.26559Z" fill="url(#paint25_radial_9_313)"/>
<path d="M20.7251 3.26559C19.4979 3.26559 18.3823 3.77559 17.5376 4.58841C16.6929 3.77559 15.5773 3.26559 14.3501 3.26559C11.7045 3.26559 9.56888 5.40122 9.56888 8.04684V8.79591C9.56888 10.1347 10.6686 11.2662 12.0073 11.2343C13.2983 11.2025 14.3501 10.1506 14.3501 8.84372C14.3501 8.41341 14.7167 8.04684 15.147 8.04684C15.5614 8.04684 15.8961 8.34966 15.9439 8.73216L16.6292 13.625C16.6929 14.0872 17.0754 14.4218 17.5376 14.4218C17.9998 14.4218 18.3823 14.0872 18.4461 13.625L19.1314 8.73216C19.1792 8.34966 19.5139 8.04684 19.9283 8.04684C20.3586 8.04684 20.7251 8.41341 20.7251 8.84372C20.7251 10.1506 21.777 11.2025 23.0679 11.2343C24.4067 11.2662 25.5064 10.1347 25.5064 8.79591V8.04684C25.5064 5.40122 23.3708 3.26559 20.7251 3.26559V3.26559Z" fill="url(#paint26_radial_9_313)"/>
<path fill-rule="evenodd" clip-rule="evenodd" d="M35.6968 45.9207C26.869 43.3149 26.7431 41.055 26.3224 33.5453L26.2969 33.099C26.0355 28.458 20.2948 25.7518 17.2316 25.5765C14.3023 25.4108 4.26329 25.5638 3.39789 25.5765C3.93658 37.3703 13.013 48.909 25.5255 48.0404C29.5625 47.7615 32.9301 47.065 35.6968 45.9207V45.9207Z" fill="url(#paint27_radial_9_313)"/>
<path fill-rule="evenodd" clip-rule="evenodd" d="M35.6968 45.9207C26.869 43.3149 26.7431 41.055 26.3224 33.5453L26.2969 33.099C26.0355 28.458 20.2948 25.7518 17.2316 25.5765C14.3023 25.4108 4.26329 25.5638 3.39789 25.5765C3.93658 37.3703 13.013 48.909 25.5255 48.0404C29.5625 47.7615 32.9301 47.065 35.6968 45.9207V45.9207Z" fill="url(#paint28_radial_9_313)"/>
<path fill-rule="evenodd" clip-rule="evenodd" d="M35.6968 45.9207C26.869 43.3149 26.7431 41.055 26.3224 33.5453L26.2969 33.099C26.0355 28.458 20.2948 25.7518 17.2316 25.5765C14.3023 25.4108 4.26329 25.5638 3.39789 25.5765C3.93658 37.3703 13.013 48.909 25.5255 48.0404C29.5625 47.7615 32.9301 47.065 35.6968 45.9207V45.9207Z" fill="url(#paint29_radial_9_313)"/>
<path fill-rule="evenodd" clip-rule="evenodd" d="M35.6968 45.9207C26.869 43.3149 26.7431 41.055 26.3224 33.5453L26.2969 33.099C26.0355 28.458 20.2948 25.7518 17.2316 25.5765C14.3023 25.4108 4.26329 25.5638 3.39789 25.5765C3.93658 37.3703 13.013 48.909 25.5255 48.0404C29.5625 47.7615 32.9301 47.065 35.6968 45.9207V45.9207Z" fill="url(#paint30_radial_9_313)"/>
<path fill-rule="evenodd" clip-rule="evenodd" d="M35.6968 45.9207C26.869 43.3149 26.7431 41.055 26.3224 33.5453L26.2969 33.099C26.0355 28.458 20.2948 25.7518 17.2316 25.5765C14.3023 25.4108 4.26329 25.5638 3.39789 25.5765C3.93658 37.3703 13.013 48.909 25.5255 48.0404C29.5625 47.7615 32.9301 47.065 35.6968 45.9207V45.9207Z" fill="url(#paint31_radial_9_313)"/>
<g filter="url(#filter1_f_9_313)">
<path d="M24.9294 21.8583C24.9294 21.42 24.5741 21.0646 24.1358 21.0646C23.6974 21.0646 23.3421 21.42 23.3421 21.8583V23.4154C23.3421 23.8537 23.6974 24.2091 24.1358 24.2091C24.5741 24.2091 24.9294 23.8537 24.9294 23.4154V21.8583Z" fill="#2DA6FF"/>
</g>
<path d="M25.5239 21.6336C25.5239 21.1952 25.1686 20.8399 24.7302 20.8399C24.2919 20.8399 23.9366 21.1952 23.9366 21.6336V23.1907C23.9366 23.629 24.2919 23.9844 24.7302 23.9844C25.1686 23.9844 25.5239 23.629 25.5239 23.1907V21.6336Z" fill="url(#paint32_linear_9_313)"/>
<path d="M25.5239 21.6336C25.5239 21.1952 25.1686 20.8399 24.7302 20.8399C24.2919 20.8399 23.9366 21.1952 23.9366 21.6336V23.1907C23.9366 23.629 24.2919 23.9844 24.7302 23.9844C25.1686 23.9844 25.5239 23.629 25.5239 23.1907V21.6336Z" fill="url(#paint33_linear_9_313)"/>
<path d="M25.5239 21.6336C25.5239 21.1952 25.1686 20.8399 24.7302 20.8399C24.2919 20.8399 23.9366 21.1952 23.9366 21.6336V23.1907C23.9366 23.629 24.2919 23.9844 24.7302 23.9844C25.1686 23.9844 25.5239 23.629 25.5239 23.1907V21.6336Z" fill="url(#paint34_radial_9_313)"/>
<g filter="url(#filter2_f_9_313)">
<path d="M18.3026 6.27938C18.835 5.55582 20.2056 4.5167 21.8647 5.03307C23.782 5.63073 23.9971 7.29938 24.08 7.97195" stroke="url(#paint35_linear_9_313)" stroke-width="0.75" stroke-linecap="round"/>
</g>
<g filter="url(#filter3_f_9_313)">
<path d="M17.5376 6.27938C17.0053 5.55582 15.6347 4.5167 13.9756 5.03307C12.0583 5.63073 11.8432 7.29938 11.7603 7.97195" stroke="url(#paint36_linear_9_313)" stroke-width="0.75" stroke-linecap="round"/>
</g>
<path d="M17.5568 8.5935V4.58522L19.7721 3.78835L20.9435 6.30328L17.5568 8.5935Z" fill="url(#paint37_radial_9_313)"/>
<g filter="url(#filter4_f_9_313)">
<path d="M18.2293 9.56569L17.8548 13.3269" stroke="#82D6FF" stroke-width="0.4" stroke-linecap="round"/>
</g>
<g filter="url(#filter5_f_9_313)">
<path d="M38.0014 11.9308C41.9858 15.2681 46.877 22.0161 43.3755 35.0641" stroke="url(#paint38_linear_9_313)" stroke-width="0.75" stroke-linecap="round"/>
</g>
<path d="M43.7293 44.0544C43.7293 44.0544 33.5931 36.1606 31.6264 35.6873C29.6581 35.2155 27.591 36.261 28.2397 39.125C28.5473 40.486 30.9777 43.3086 32.3229 44.3525C33.3986 45.1908 34.5653 45.8235 36.3582 46.147C38.1512 46.4706 39.9681 46.3224 42.8814 46.3224C45.0729 46.3224 44.5756 44.8354 43.7293 44.0544V44.0544Z" fill="url(#paint39_linear_9_313)"/>
<path d="M43.7293 44.0544C43.7293 44.0544 33.5931 36.1606 31.6264 35.6873C29.6581 35.2155 27.591 36.261 28.2397 39.125C28.5473 40.486 30.9777 43.3086 32.3229 44.3525C33.3986 45.1908 34.5653 45.8235 36.3582 46.147C38.1512 46.4706 39.9681 46.3224 42.8814 46.3224C45.0729 46.3224 44.5756 44.8354 43.7293 44.0544V44.0544Z" fill="url(#paint40_linear_9_313)"/>
<path d="M43.7293 44.0544C43.7293 44.0544 33.5931 36.1606 31.6264 35.6873C29.6581 35.2155 27.591 36.261 28.2397 39.125C28.5473 40.486 30.9777 43.3086 32.3229 44.3525C33.3986 45.1908 34.5653 45.8235 36.3582 46.147C38.1512 46.4706 39.9681 46.3224 42.8814 46.3224C45.0729 46.3224 44.5756 44.8354 43.7293 44.0544V44.0544Z" fill="url(#paint41_radial_9_313)"/>
<g filter="url(#filter6_f_9_313)">
<path d="M43.8632 43.9078L43.8504 43.8983L43.7293 44.0545L43.8504 43.8983V43.8967L43.8441 43.8919L43.8218 43.876L43.7357 43.809C43.2366 43.4227 42.7361 43.038 42.2344 42.6551C41.0092 41.721 39.775 40.7988 38.5321 39.8884C37.1963 38.9035 35.8375 37.9501 34.4569 37.0292C33.9192 36.6708 33.3696 36.3306 32.8089 36.0092C32.3436 35.7478 31.9483 35.5598 31.6726 35.4944C30.6478 35.2474 29.5688 35.3892 28.8262 36.0012C28.0707 36.6228 27.7105 37.6842 28.0452 39.168C28.1297 39.541 28.3528 39.9968 28.6493 40.4749C28.9473 40.9546 29.3266 41.4742 29.7378 41.9826C30.557 42.9962 31.5116 43.9748 32.2017 44.5119C33.2982 45.3645 34.4935 46.0132 36.3216 46.3431C37.6699 46.5869 39.0389 46.5662 40.8367 46.5391C41.4614 46.5295 42.1372 46.52 42.8814 46.52C43.4472 46.52 43.8696 46.4244 44.1612 46.2475C44.2962 46.171 44.4105 46.0629 44.4944 45.9324C44.5782 45.8019 44.6291 45.6529 44.6425 45.4984C44.6573 45.2005 44.5865 44.9046 44.4385 44.6457C44.2898 44.3695 44.0959 44.1201 43.8648 43.9078H43.8632Z" stroke="url(#paint42_linear_9_313)" stroke-width="0.25"/>
</g>
<g filter="url(#filter7_f_9_313)">
<path d="M33.8114 10.6303L35.7096 11.4081C32.8217 15.7654 29.5099 14.7294 28.2907 14.3469H28.2891L30.5729 11.475C30.9487 11.0028 31.4674 10.6652 32.0514 10.5129C32.6353 10.3606 33.2529 10.4018 33.8114 10.6303Z" fill="url(#paint43_linear_9_313)"/>
</g>
<g filter="url(#filter8_f_9_313)">
<path d="M38.0508 3.81226C38.6978 4.82588 39.5059 7.43804 37.5519 9.78882" stroke="url(#paint44_linear_9_313)" stroke-width="0.25" stroke-linecap="round"/>
</g>
<defs>
<filter id="filter0_f_9_313" x="23.196" y="18.3008" width="16.7532" height="17.0927" filterUnits="userSpaceOnUse" color-interpolation-filters="sRGB">
<feFlood flood-opacity="0" result="BackgroundImageFix"/>
<feBlend mode="normal" in="SourceGraphic" in2="BackgroundImageFix" result="shape"/>
<feGaussianBlur stdDeviation="0.75" result="effect1_foregroundBlur_9_313"/>
</filter>
<filter id="filter1_f_9_313" x="22.8421" y="20.5646" width="2.58737" height="4.14447" filterUnits="userSpaceOnUse" color-interpolation-filters="sRGB">
<feFlood flood-opacity="0" result="BackgroundImageFix"/>
<feBlend mode="normal" in="SourceGraphic" in2="BackgroundImageFix" result="shape"/>
<feGaussianBlur stdDeviation="0.25" result="effect1_foregroundBlur_9_313"/>
</filter>
<filter id="filter2_f_9_313" x="16.6776" y="3.26822" width="9.0274" height="6.32877" filterUnits="userSpaceOnUse" color-interpolation-filters="sRGB">
<feFlood flood-opacity="0" result="BackgroundImageFix"/>
<feBlend mode="normal" in="SourceGraphic" in2="BackgroundImageFix" result="shape"/>
<feGaussianBlur stdDeviation="0.625" result="effect1_foregroundBlur_9_313"/>
</filter>
<filter id="filter3_f_9_313" x="10.1353" y="3.26822" width="9.0274" height="6.32877" filterUnits="userSpaceOnUse" color-interpolation-filters="sRGB">
<feFlood flood-opacity="0" result="BackgroundImageFix"/>
<feBlend mode="normal" in="SourceGraphic" in2="BackgroundImageFix" result="shape"/>
<feGaussianBlur stdDeviation="0.625" result="effect1_foregroundBlur_9_313"/>
</filter>
<filter id="filter4_f_9_313" x="17.1548" y="8.86568" width="1.77457" height="5.16129" filterUnits="userSpaceOnUse" color-interpolation-filters="sRGB">
<feFlood flood-opacity="0" result="BackgroundImageFix"/>
<feBlend mode="normal" in="SourceGraphic" in2="BackgroundImageFix" result="shape"/>
<feGaussianBlur stdDeviation="0.25" result="effect1_foregroundBlur_9_313"/>
</filter>
<filter id="filter5_f_9_313" x="36.6264" y="10.5558" width="9.32349" height="25.8834" filterUnits="userSpaceOnUse" color-interpolation-filters="sRGB">
<feFlood flood-opacity="0" result="BackgroundImageFix"/>
<feBlend mode="normal" in="SourceGraphic" in2="BackgroundImageFix" result="shape"/>
<feGaussianBlur stdDeviation="0.5" result="effect1_foregroundBlur_9_313"/>
</filter>
<filter id="filter6_f_9_313" x="27.5449" y="35.0043" width="17.4745" height="11.9255" filterUnits="userSpaceOnUse" color-interpolation-filters="sRGB">
<feFlood flood-opacity="0" result="BackgroundImageFix"/>
<feBlend mode="normal" in="SourceGraphic" in2="BackgroundImageFix" result="shape"/>
<feGaussianBlur stdDeviation="0.125" result="effect1_foregroundBlur_9_313"/>
</filter>
<filter id="filter7_f_9_313" x="27.7891" y="9.92262" width="8.4205" height="5.31166" filterUnits="userSpaceOnUse" color-interpolation-filters="sRGB">
<feFlood flood-opacity="0" result="BackgroundImageFix"/>
<feBlend mode="normal" in="SourceGraphic" in2="BackgroundImageFix" result="shape"/>
<feGaussianBlur stdDeviation="0.25" result="effect1_foregroundBlur_9_313"/>
</filter>
<filter id="filter8_f_9_313" x="36.9269" y="3.18724" width="2.47824" height="7.22658" filterUnits="userSpaceOnUse" color-interpolation-filters="sRGB">
<feFlood flood-opacity="0" result="BackgroundImageFix"/>
<feBlend mode="normal" in="SourceGraphic" in2="BackgroundImageFix" result="shape"/>
<feGaussianBlur stdDeviation="0.25" result="effect1_foregroundBlur_9_313"/>
</filter>
<linearGradient id="paint0_linear_9_313" x1="9.16408" y1="41.4152" x2="10.9076" y2="43.6066" gradientUnits="userSpaceOnUse">
<stop stop-color="#7BB2FF"/>
<stop offset="1" stop-color="#7BB2FF" stop-opacity="0"/>
</linearGradient>
<radialGradient id="paint1_radial_9_313" cx="0" cy="0" r="1" gradientUnits="userSpaceOnUse" gradientTransform="translate(11.5547 49.0859) rotate(-115.659) scale(5.63584 7.39466)">
<stop stop-color="#BB9FFF"/>
<stop offset="1" stop-color="#BB9FFF" stop-opacity="0"/>
</radialGradient>
<radialGradient id="paint2_radial_9_313" cx="0" cy="0" r="1" gradientUnits="userSpaceOnUse" gradientTransform="translate(27.4922 39.125) rotate(-108.75) scale(11.4659 10.8325)">
<stop stop-color="#489AF9"/>
<stop offset="1" stop-color="#489AF9" stop-opacity="0"/>
</radialGradient>
<radialGradient id="paint3_radial_9_313" cx="0" cy="0" r="1" gradientUnits="userSpaceOnUse" gradientTransform="translate(38.5496 9.639) rotate(93.198) scale(16.0685 11.3461)">
<stop stop-color="#40A9FF"/>
<stop offset="1" stop-color="#40A9FF" stop-opacity="0"/>
</radialGradient>
<radialGradient id="paint4_radial_9_313" cx="0" cy="0" r="1" gradientUnits="userSpaceOnUse" gradientTransform="translate(5.1797 19.1027) rotate(40.3331) scale(6.92554 11.3539)">
<stop stop-color="#8BC7EA"/>
<stop offset="1" stop-color="#8BC7EA" stop-opacity="0"/>
</radialGradient>
<radialGradient id="paint5_radial_9_313" cx="0" cy="0" r="1" gradientUnits="userSpaceOnUse" gradientTransform="translate(6.87267 28.6663) rotate(-45) scale(10.0017 6.98231)">
<stop stop-color="#3C95EF"/>
<stop offset="1" stop-color="#3C95EF" stop-opacity="0"/>
</radialGradient>
<radialGradient id="paint6_radial_9_313" cx="0" cy="0" r="1" gradientUnits="userSpaceOnUse" gradientTransform="translate(36.9539 26.3753) rotate(91.909) scale(5.97988 5.57503)">
<stop stop-color="#2A95F1"/>
<stop offset="1" stop-color="#2A95F1" stop-opacity="0"/>
</radialGradient>
<radialGradient id="paint7_radial_9_313" cx="0" cy="0" r="1" gradientUnits="userSpaceOnUse" gradientTransform="translate(36.0586 19.1027) rotate(71.7321) scale(10.8043 4.01319)">
<stop stop-color="#2A95F1"/>
<stop offset="1" stop-color="#2A95F1" stop-opacity="0"/>
</radialGradient>
<radialGradient id="paint8_radial_9_313" cx="0" cy="0" r="1" gradientUnits="userSpaceOnUse" gradientTransform="translate(31.7762 45.1509) rotate(-131.955) scale(6.6302 7.55578)">
<stop stop-color="#4766FF"/>
<stop offset="1" stop-color="#4766FF" stop-opacity="0"/>
</radialGradient>
<radialGradient id="paint9_radial_9_313" cx="0" cy="0" r="1" gradientUnits="userSpaceOnUse" gradientTransform="translate(37.1551 37.4308) rotate(-32.1957) scale(9.53444 7.28603)">
<stop stop-color="#5DBFFF"/>
<stop offset="1" stop-color="#5DBFFF" stop-opacity="0"/>
</radialGradient>
<radialGradient id="paint10_radial_9_313" cx="0" cy="0" r="1" gradientUnits="userSpaceOnUse" gradientTransform="translate(39.6708 10.7599) rotate(-171.621) scale(3.24706 2.4268)">
<stop stop-color="#6CCAFF"/>
<stop offset="1" stop-color="#6CCAFF" stop-opacity="0"/>
</radialGradient>
<radialGradient id="paint11_radial_9_313" cx="0" cy="0" r="1" gradientUnits="userSpaceOnUse" gradientTransform="translate(24.7956 22.7396) rotate(146.179) scale(13.959 15.1424)">
<stop stop-color="#4CCCFF"/>
<stop offset="1" stop-color="#4CCCFF" stop-opacity="0"/>
</radialGradient>
<radialGradient id="paint12_radial_9_313" cx="0" cy="0" r="1" gradientUnits="userSpaceOnUse" gradientTransform="translate(41.1395 43.4074) rotate(-44.6903) scale(13.0306 4.02044)">
<stop stop-color="#4E97FF"/>
<stop offset="1" stop-color="#4E97FF" stop-opacity="0"/>
</radialGradient>
<linearGradient id="paint13_linear_9_313" x1="27.7918" y1="20.7968" x2="35.5613" y2="33.8943" gradientUnits="userSpaceOnUse">
<stop stop-color="#68DDFF"/>
<stop offset="1" stop-color="#68DDFF" stop-opacity="0"/>
</linearGradient>
<radialGradient id="paint14_radial_9_313" cx="0" cy="0" r="1" gradientUnits="userSpaceOnUse" gradientTransform="translate(7.04757 12.503) rotate(113.688) scale(1.65881 1.7424)">
<stop stop-color="#7FDAFE"/>
<stop offset="1" stop-color="#5FC4F4"/>
</radialGradient>
<radialGradient id="paint15_radial_9_313" cx="0" cy="0" r="1" gradientUnits="userSpaceOnUse" gradientTransform="translate(7.4227 11.9796) rotate(143.242) scale(3.28735 2.37053)">
<stop offset="0.783" stop-color="#9FE1FE" stop-opacity="0"/>
<stop offset="1" stop-color="#9FE1FE"/>
</radialGradient>
<radialGradient id="paint16_radial_9_313" cx="0" cy="0" r="1" gradientUnits="userSpaceOnUse" gradientTransform="translate(29.8838 4.0617) rotate(107.735) scale(3.42333)">
<stop offset="0.011" stop-color="#CAF1FF"/>
<stop offset="1" stop-color="#64D1F2"/>
</radialGradient>
<radialGradient id="paint17_radial_9_313" cx="0" cy="0" r="1" gradientUnits="userSpaceOnUse" gradientTransform="translate(28.5626 5.28213) rotate(81.335) scale(1.83885 2.23192)">
<stop stop-color="#B2DBFF"/>
<stop offset="1" stop-color="#B2DBFF" stop-opacity="0"/>
</radialGradient>
<radialGradient id="paint18_radial_9_313" cx="0" cy="0" r="1" gradientUnits="userSpaceOnUse" gradientTransform="translate(28.8405 3.34051) rotate(90) scale(3.42408 2.80124)">
<stop offset="0.878" stop-color="#9AC5FF" stop-opacity="0"/>
<stop offset="1" stop-color="#9AC5FF"/>
</radialGradient>
<linearGradient id="paint19_linear_9_313" x1="17.5376" y1="4.06247" x2="17.5376" y2="13.8242" gradientUnits="userSpaceOnUse">
<stop stop-color="#B6E1ED"/>
<stop offset="1" stop-color="#4CCAEE"/>
</linearGradient>
<radialGradient id="paint20_radial_9_313" cx="0" cy="0" r="1" gradientUnits="userSpaceOnUse" gradientTransform="translate(24.3541 3.26559) rotate(122.106) scale(2.99865 5.70008)">
<stop stop-color="#C1EDFD"/>
<stop offset="1" stop-color="#C1EDFD" stop-opacity="0"/>
</radialGradient>
<radialGradient id="paint21_radial_9_313" cx="0" cy="0" r="1" gradientUnits="userSpaceOnUse" gradientTransform="translate(24.7525 12.13) rotate(-115.263) scale(4.9014 6.21561)">
<stop stop-color="#3FBEF0"/>
<stop offset="1" stop-color="#3FBEF0" stop-opacity="0"/>
</radialGradient>
<radialGradient id="paint22_radial_9_313" cx="0" cy="0" r="1" gradientUnits="userSpaceOnUse" gradientTransform="translate(10.7084 13.1261) rotate(-75.8542) scale(6.31754 4.20397)">
<stop stop-color="#3FBEF0"/>
<stop offset="1" stop-color="#3FBEF0" stop-opacity="0"/>
</radialGradient>
<radialGradient id="paint23_radial_9_313" cx="0" cy="0" r="1" gradientUnits="userSpaceOnUse" gradientTransform="translate(16.0124 12.6034) rotate(-97.6712) scale(6.15616 1.66374)">
<stop stop-color="#3FBEF0"/>
<stop offset="1" stop-color="#3FBEF0" stop-opacity="0"/>
</radialGradient>
<radialGradient id="paint24_radial_9_313" cx="0" cy="0" r="1" gradientUnits="userSpaceOnUse" gradientTransform="translate(19.3003 13.1516) rotate(-87.3867) scale(6.00772 1.23086)">
<stop stop-color="#3FBEF0"/>
<stop offset="1" stop-color="#3FBEF0" stop-opacity="0"/>
</radialGradient>
<radialGradient id="paint25_radial_9_313" cx="0" cy="0" r="1" gradientUnits="userSpaceOnUse" gradientTransform="translate(7.54482 5.82994) rotate(21.0633) scale(3.94943 9.41494)">
<stop stop-color="#C7EBF7"/>
<stop offset="1" stop-color="#C7EBF7" stop-opacity="0"/>
</radialGradient>
<radialGradient id="paint26_radial_9_313" cx="0" cy="0" r="1" gradientUnits="userSpaceOnUse" gradientTransform="translate(17.5376 4.27284) rotate(90) scale(2.19141 3.2557)">
<stop stop-color="#7FCFEA"/>
<stop offset="1" stop-color="#B1DDEC" stop-opacity="0"/>
</radialGradient>
<radialGradient id="paint27_radial_9_313" cx="0" cy="0" r="1" gradientUnits="userSpaceOnUse" gradientTransform="translate(23.1083 29.5625) rotate(98.032) scale(32.7943 46.8972)">
<stop offset="0.2" stop-color="#ACDBFF"/>
<stop offset="0.753" stop-color="#CB98FF"/>
</radialGradient>
<radialGradient id="paint28_radial_9_313" cx="0" cy="0" r="1" gradientUnits="userSpaceOnUse" gradientTransform="translate(27.6914 22.8879) rotate(90) scale(27.3926 38.7347)">
<stop offset="0.742" stop-color="#CA99FF" stop-opacity="0"/>
<stop offset="1" stop-color="#CA99FF"/>
</radialGradient>
<radialGradient id="paint29_radial_9_313" cx="0" cy="0" r="1" gradientUnits="userSpaceOnUse" gradientTransform="translate(31.1804 26.0765) rotate(162.597) scale(27.9759 40.0066)">
<stop offset="0.622" stop-color="#84B1FF" stop-opacity="0"/>
<stop offset="1" stop-color="#84B1FF"/>
</radialGradient>
<radialGradient id="paint30_radial_9_313" cx="0" cy="0" r="1" gradientUnits="userSpaceOnUse" gradientTransform="translate(31.1785 26.0754) rotate(161.499) scale(27.4673 31.3714)">
<stop offset="0.915" stop-color="#B6E3FF" stop-opacity="0"/>
<stop offset="1" stop-color="#B6E3FF"/>
</radialGradient>
<radialGradient id="paint31_radial_9_313" cx="0" cy="0" r="1" gradientUnits="userSpaceOnUse" gradientTransform="translate(15.19 46.2968) rotate(8.93561) scale(8.01623 0.784433)">
<stop stop-color="#D3A1FF"/>
<stop offset="1" stop-color="#D3A1FF" stop-opacity="0"/>
</radialGradient>
<linearGradient id="paint32_linear_9_313" x1="25.5239" y1="22.2153" x2="24.6043" y2="22.2153" gradientUnits="userSpaceOnUse">
<stop offset="0.225" stop-color="#594C4F"/>
<stop offset="1" stop-color="#392833"/>
</linearGradient>
<linearGradient id="paint33_linear_9_313" x1="25.7726" y1="23.8361" x2="25.7726" y2="22.3396" gradientUnits="userSpaceOnUse">
<stop stop-color="#492847"/>
<stop offset="1" stop-color="#552D52" stop-opacity="0"/>
</linearGradient>
<radialGradient id="paint34_radial_9_313" cx="0" cy="0" r="1" gradientUnits="userSpaceOnUse" gradientTransform="translate(24.9006 22.6585) rotate(-104.924) scale(1.84108 1.99359)">
<stop offset="0.814" stop-color="#594C4F" stop-opacity="0"/>
<stop offset="1" stop-color="#594C4F"/>
</radialGradient>
<linearGradient id="paint35_linear_9_313" x1="23.0106" y1="5.73113" x2="19.8725" y2="6.43238" gradientUnits="userSpaceOnUse">
<stop stop-color="#C8F2FF"/>
<stop offset="1" stop-color="#B7D4FF"/>
</linearGradient>
<linearGradient id="paint36_linear_9_313" x1="12.8313" y1="5.73113" x2="15.9678" y2="6.43238" gradientUnits="userSpaceOnUse">
<stop stop-color="#C8F2FF"/>
<stop offset="1" stop-color="#B7D4FF"/>
</linearGradient>
<radialGradient id="paint37_radial_9_313" cx="0" cy="0" r="1" gradientUnits="userSpaceOnUse" gradientTransform="translate(17.5568 5.76778) rotate(-2.12039) scale(0.336416 2.87632)">
<stop stop-color="#A1D2F0"/>
<stop offset="1" stop-color="#A1D2F0" stop-opacity="0"/>
</radialGradient>
<linearGradient id="paint38_linear_9_313" x1="40.6821" y1="11.2423" x2="45.3725" y2="40.8669" gradientUnits="userSpaceOnUse">
<stop stop-color="#6AD3FF"/>
<stop offset="1" stop-color="#6AD3FF" stop-opacity="0"/>
</linearGradient>
<linearGradient id="paint39_linear_9_313" x1="41.6367" y1="47.4922" x2="30.5809" y2="33.8943" gradientUnits="userSpaceOnUse">
<stop stop-color="#4884FF"/>
<stop offset="1" stop-color="#47A9F3"/>
</linearGradient>
<linearGradient id="paint40_linear_9_313" x1="37.0547" y1="38.7265" x2="35.9598" y2="40.2693" gradientUnits="userSpaceOnUse">
<stop stop-color="#58B4FF"/>
<stop offset="1" stop-color="#58B4FF" stop-opacity="0"/>
</linearGradient>
<radialGradient id="paint41_radial_9_313" cx="0" cy="0" r="1" gradientUnits="userSpaceOnUse" gradientTransform="translate(36.8061 38.9752) rotate(112.59) scale(7.39026 12.239)">
<stop offset="0.693" stop-color="#547BFF" stop-opacity="0"/>
<stop offset="1" stop-color="#547BFF"/>
</radialGradient>
<linearGradient id="paint42_linear_9_313" x1="32.5221" y1="34.7916" x2="32.5221" y2="36.634" gradientUnits="userSpaceOnUse">
<stop stop-color="#65C5FF"/>
<stop offset="1" stop-color="#65C5FF" stop-opacity="0"/>
</linearGradient>
<linearGradient id="paint43_linear_9_313" x1="30.1075" y1="12.4297" x2="33.5437" y2="14.1716" gradientUnits="userSpaceOnUse">
<stop stop-color="#5BBCFF"/>
<stop offset="1" stop-color="#5BBCFF" stop-opacity="0"/>
</linearGradient>
<linearGradient id="paint44_linear_9_313" x1="38.1671" y1="3.81226" x2="38.1671" y2="9.78882" gradientUnits="userSpaceOnUse">
<stop stop-color="#6CCFFF"/>
<stop offset="1" stop-color="#6CCFFF" stop-opacity="0"/>
</linearGradient>
</defs>
</svg>
