<svg width="205" height="290" viewBox="0 0 205 290" fill="none" xmlns="http://www.w3.org/2000/svg">
<g filter="url(#filter0_bd_12_2607)">
<path d="M10 27C10 12.0883 22.0883 0 37 0H158C172.912 0 185 12.0883 185 27V223C185 237.912 172.912 250 158 250H37C22.0883 250 10 237.912 10 223V27Z" fill="url(#paint0_linear_12_2607)" shape-rendering="crispEdges"/>
</g>
<g clip-path="url(#clip0_12_2607)">
<path d="M41.0032 225C42.0641 225 43.0815 224.579 43.8317 223.828C44.5818 223.078 45.0032 222.061 45.0032 221H37.0032C37.0032 222.061 37.4247 223.078 38.1748 223.828C38.925 224.579 39.9424 225 41.0032 225ZM38.0032 215C37.738 215 37.4837 215.105 37.2961 215.293C37.1086 215.48 37.0032 215.735 37.0032 216V217C37.0032 217.265 37.1086 217.52 37.2961 217.707C37.4837 217.895 37.738 218 38.0032 218C38.2685 218 38.5228 217.895 38.7103 217.707C38.8979 217.52 39.0032 217.265 39.0032 217V216C39.0032 215.735 38.8979 215.48 38.7103 215.293C38.5228 215.105 38.2685 215 38.0032 215ZM44.0032 215C43.738 215 43.4837 215.105 43.2961 215.293C43.1086 215.48 43.0032 215.735 43.0032 216V217C43.0032 217.265 43.1086 217.52 43.2961 217.707C43.4837 217.895 43.738 218 44.0032 218C44.2685 218 44.5228 217.895 44.7103 217.707C44.8979 217.52 45.0032 217.265 45.0032 217V216C45.0032 215.735 44.8979 215.48 44.7103 215.293C44.5228 215.105 44.2685 215 44.0032 215ZM40.0032 219.5C40.0032 219.632 39.951 219.758 39.858 219.851C39.7649 219.944 39.6388 219.996 39.5072 219.996C39.3757 219.996 39.2495 219.944 39.1565 219.851C39.0635 219.758 39.0112 219.632 39.0112 219.5C39.0112 219.368 39.0635 219.242 39.1565 219.149C39.2495 219.056 39.3757 219.004 39.5072 219.004C39.6388 219.004 39.7649 219.056 39.858 219.149C39.951 219.242 40.0032 219.368 40.0032 219.5V219.5ZM42.5072 219.996C42.6388 219.996 42.7649 219.944 42.858 219.851C42.951 219.758 43.0032 219.632 43.0032 219.5C43.0032 219.368 42.951 219.242 42.858 219.149C42.7649 219.056 42.6388 219.004 42.5072 219.004C42.3757 219.004 42.2495 219.056 42.1565 219.149C42.0635 219.242 42.0112 219.368 42.0112 219.5C42.0112 219.632 42.0635 219.758 42.1565 219.851C42.2495 219.944 42.3757 219.996 42.5072 219.996V219.996Z" fill="black"/>
<path d="M50.0032 215.094C50.0037 215.851 49.8125 216.595 49.4474 217.258C49.0823 217.921 48.5552 218.481 47.9152 218.885C48.0758 219.885 48.0174 220.909 47.7439 221.884C47.4705 222.86 46.9885 223.764 46.3314 224.535C45.6742 225.306 44.8575 225.925 43.9377 226.35C43.0179 226.775 42.0168 226.995 41.0037 226.995C39.9906 226.995 38.9896 226.775 38.0698 226.35C37.15 225.925 36.3333 225.306 35.6761 224.535C35.019 223.764 34.537 222.86 34.2636 221.884C33.9901 220.909 33.9316 219.885 34.0922 218.885C33.4521 218.481 32.9248 217.921 32.5595 217.259C32.1942 216.596 32.0028 215.851 32.0032 215.094V214.954C32.0031 214.365 32.119 213.782 32.3443 213.238C32.5696 212.694 32.8998 212.199 33.3162 211.783C33.7326 211.366 34.227 211.036 34.7711 210.81C35.3151 210.585 35.8983 210.469 36.4872 210.469H45.5192C46.7085 210.469 47.849 210.941 48.6899 211.782C49.5308 212.623 50.0032 213.764 50.0032 214.953V215.093V215.094ZM47.3802 218.04C47.8776 217.726 48.2873 217.291 48.5712 216.776C48.855 216.261 49.0036 215.682 49.0032 215.094V214.954C49.0034 214.496 48.9133 214.043 48.7383 213.62C48.5633 213.198 48.3067 212.813 47.9831 212.49C47.6596 212.166 47.2755 211.909 46.8527 211.734C46.43 211.559 45.9768 211.469 45.5192 211.469H36.4872C35.5632 211.469 34.6771 211.836 34.0237 212.489C33.3703 213.143 33.0032 214.029 33.0032 214.953V215.093C33.0032 216.333 33.6492 217.421 34.6262 218.04L35.1832 218.393L35.0792 219.043C34.9419 219.9 34.9923 220.777 35.2269 221.613C35.4615 222.449 35.8747 223.224 36.4379 223.885C37.0012 224.545 37.7011 225.076 38.4894 225.44C39.2777 225.803 40.1355 225.992 41.0037 225.992C41.8719 225.992 42.7298 225.803 43.518 225.44C44.3063 225.076 45.0063 224.545 45.5695 223.885C46.1328 223.224 46.546 222.449 46.7806 221.613C47.0152 220.777 47.0655 219.9 46.9282 219.043L46.8232 218.393L47.3802 218.04Z" fill="black"/>
<path d="M53.1562 224.435C51.3932 228.866 47.0662 232 42.0032 232H40.0032C34.9412 232 30.6132 228.866 28.8502 224.435C27.6564 223.902 26.651 223.021 25.9654 221.908C25.2798 220.795 24.9458 219.501 25.0072 218.195C25.0685 216.889 25.5223 215.631 26.3092 214.587C27.0961 213.543 28.1797 212.761 29.4182 212.342C30.4428 210.425 31.9687 208.823 33.8329 207.706C35.6972 206.589 37.8299 205.999 40.0032 206H42.0032C44.1765 206 46.3091 206.589 48.1734 207.706C50.0376 208.823 51.5635 210.425 52.5882 212.342C53.826 212.762 54.9087 213.544 55.6949 214.588C56.4812 215.633 56.9345 216.889 56.9958 218.195C57.0572 219.5 56.7236 220.794 56.0387 221.907C55.3538 223.02 54.3493 223.901 53.1562 224.435ZM40.0032 208C39.5402 208 39.0852 208.031 38.6392 208.092C33.7612 208.758 30.0032 212.94 30.0032 218V220C30.0032 225.523 34.4802 230 40.0032 230H42.0032C43.58 230.003 45.1349 229.631 46.5392 228.914C48.1838 228.077 49.5646 226.801 50.529 225.228C51.4934 223.655 52.0036 221.845 52.0032 220V218C52.0032 213.11 48.4942 209.041 43.8582 208.172C43.2466 208.057 42.6256 208 42.0032 208H40.0032ZM53.0032 218V220C53.0032 220.827 52.9122 221.632 52.7392 222.407C53.4547 221.997 54.044 221.399 54.4426 220.677C54.8413 219.955 55.034 219.138 54.9999 218.314C54.9657 217.49 54.706 216.691 54.249 216.005C53.7919 215.319 53.1552 214.771 52.4082 214.422C52.7932 215.543 53.0032 216.747 53.0032 218ZM29.0032 220V218C29.0032 216.747 29.2132 215.543 29.5982 214.422C28.8513 214.771 28.2145 215.319 27.7575 216.005C27.3005 216.691 27.0408 217.49 27.0066 218.314C26.9725 219.138 27.1652 219.955 27.5639 220.677C27.9625 221.399 28.5517 221.997 29.2672 222.407C29.0913 221.617 29.0027 220.81 29.0032 220V220Z" fill="black"/>
</g>
<path d="M144 22.96C144 24.187 144.448 25.373 145.247 26.298L145.781 25.737V25.736C146.566 24.911 147.415 24.019 148.205 23.162C147.289 22.4129 146.143 22.0026 144.96 22H144.34C144.15 22 144 22.15 144 22.34V22.96V22.96ZM162.753 26.298C163.555 25.3709 163.998 24.1862 164 22.96V22.34C164 22.15 163.85 22 163.66 22H163.04C161.857 22.0026 160.711 22.4129 159.795 23.162C160.585 24.019 161.433 24.91 162.217 25.734V25.735L162.218 25.736L162.22 25.737L162.753 26.298V26.298ZM155.502 40.68C154.902 40.68 154.372 40.42 154.002 40C153.632 40.42 153.102 40.68 152.502 40.68C151.402 40.68 150.502 39.78 150.502 38.68C150.502 38.4 150.722 38.18 151.002 38.18C151.282 38.18 151.502 38.4 151.502 38.68C151.502 39.23 151.952 39.68 152.502 39.68C153.052 39.68 153.502 39.23 153.502 38.68C153.502 38.4 153.722 38.18 154.002 38.18C154.282 38.18 154.502 38.4 154.502 38.68C154.502 39.23 154.952 39.68 155.502 39.68C156.052 39.68 156.502 39.23 156.502 38.68C156.502 38.4 156.722 38.18 157.002 38.18C157.282 38.18 157.502 38.4 157.502 38.68C157.502 39.78 156.602 40.68 155.502 40.68Z" fill="black"/>
<path d="M143.342 19C142.721 19 142.126 19.2465 141.687 19.6854C141.248 20.1242 141.002 20.7194 141.002 21.34V22.57C141.002 24.243 141.549 25.86 142.537 27.185L139.936 30.288L139.933 30.291C139.451 30.8693 139.141 31.571 139.038 32.3166C138.935 33.0622 139.043 33.8217 139.35 34.509C141.855 40.094 147.474 43.999 154.002 43.999C160.532 43.999 166.15 40.095 168.655 34.499L168.657 34.495C168.966 33.8075 169.075 33.0465 168.97 32.2999C168.866 31.5533 168.553 30.8513 168.067 30.275L168.064 30.271L165.47 27.181C166.463 25.8488 167 24.2318 167.002 22.57V21.34C167.002 20.7194 166.755 20.1242 166.316 19.6854C165.877 19.2465 165.282 19 164.662 19H163.432C161.745 19 160.112 19.557 158.781 20.568C157.298 19.8234 155.661 19.4371 154.002 19.44C152.286 19.44 150.664 19.845 149.227 20.564C147.886 19.5502 146.252 19.0011 144.572 19H143.342V19ZM143.002 21.34C143.002 21.2498 143.038 21.1633 143.101 21.0996C143.165 21.0358 143.252 21 143.342 21H144.572C146.002 21 147.382 21.54 148.434 22.503L148.978 23.002L149.615 22.628C150.945 21.8473 152.46 21.4371 154.002 21.44C155.609 21.44 157.107 21.874 158.391 22.632L159.031 23.01L159.577 22.507C160.627 21.5393 162.003 21.0014 163.431 21H164.661C164.751 21 164.837 21.0358 164.901 21.0996C164.965 21.1633 165.001 21.2498 165.001 21.34V22.57C165.001 24.03 164.438 25.437 163.438 26.496L162.826 27.144L166.536 31.563L166.54 31.569C166.782 31.8583 166.938 32.2103 166.989 32.5844C167.04 32.9585 166.984 33.3394 166.828 33.683C166.514 34.3828 166.144 35.0557 165.721 35.695C165.488 34.5022 164.943 33.3926 164.141 32.48L161.525 29.503L161.524 29.501C161.117 29.0303 160.614 28.6526 160.049 28.3936C159.483 28.1346 158.869 28.0003 158.247 28H158.157C156.073 28.04 154.345 29.59 154 31.587C153.656 29.59 151.932 28.041 149.851 28H149.761C149.14 28.0005 148.526 28.1349 147.961 28.3941C147.397 28.6533 146.895 29.0312 146.49 29.502L143.879 32.482C143.071 33.4017 142.525 34.5208 142.297 35.723C141.867 35.0779 141.492 34.3982 141.175 33.691C141.021 33.3453 140.967 32.9635 141.019 32.5889C141.072 32.2142 141.228 31.8616 141.47 31.571L141.471 31.569L145.179 27.145L144.568 26.498C143.564 25.4363 143.004 24.0311 143.002 22.57V21.34ZM163.39 33.14C164.303 34.1751 164.818 35.501 164.844 36.881C164.448 37.361 164.021 37.815 163.566 38.238C163.77 37.4835 163.786 36.6902 163.611 35.9283C163.435 35.1664 163.075 34.4594 162.562 33.87L159.962 30.88C159.755 30.6335 159.497 30.4364 159.204 30.3031C158.912 30.1699 158.593 30.1039 158.272 30.11C157.102 30.13 156.172 31.12 156.172 32.3V33.934C155.993 33.9113 155.812 33.8999 155.632 33.9H154.937V32.301C154.947 30.513 156.397 29.037 158.173 29H158.248C159.222 29 160.136 29.425 160.77 30.157L163.39 33.14V33.14ZM153.062 33.9H152.362C152.19 33.9 152.02 33.91 151.852 33.93V32.3C151.852 31.12 150.922 30.13 149.752 30.11C149.43 30.1039 149.112 30.1699 148.819 30.3031C148.527 30.4364 148.268 30.6335 148.062 30.88L145.462 33.87C144.945 34.4633 144.584 35.1754 144.41 35.9426C144.237 36.7098 144.256 37.5081 144.467 38.266C144.008 37.8429 143.578 37.3899 143.18 36.91C143.199 35.5204 143.714 34.1834 144.632 33.14L147.243 30.16L147.245 30.158C147.556 29.7952 147.942 29.5038 148.377 29.304C148.811 29.1041 149.284 29.0004 149.762 29H149.837C151.607 29.037 153.053 30.512 153.062 32.301V33.9V33.9ZM157.087 41.66C155.055 42.1149 152.948 42.1149 150.917 41.66C150.361 41.2568 149.908 40.7276 149.596 40.1157C149.284 39.5039 149.122 38.8268 149.122 38.14C149.122 37.3621 149.402 36.6103 149.91 36.0217C150.419 35.4331 151.122 35.047 151.892 34.934C151.718 35.284 151.747 35.734 152.072 36.06L153.322 37.32C153.702 37.7 154.312 37.7 154.682 37.32L155.932 36.06C156.077 35.9162 156.174 35.7298 156.206 35.5277C156.239 35.3257 156.207 35.1184 156.114 34.936C156.881 35.0518 157.581 35.4388 158.087 36.0266C158.593 36.6145 158.871 37.3643 158.872 38.14C158.873 38.8259 158.712 39.5023 158.401 40.1141C158.091 40.7258 157.641 41.2556 157.087 41.66V41.66ZM158.065 34.4C157.655 34.4 157.315 34.06 157.315 33.65V32.15C157.315 31.74 157.655 31.4 158.065 31.4C158.475 31.4 158.815 31.74 158.815 32.15V33.65C158.815 34.07 158.475 34.4 158.065 34.4ZM149.252 33.54V32.04C149.252 31.63 149.592 31.29 150.002 31.29C150.412 31.29 150.752 31.63 150.752 32.04V33.54C150.752 33.6385 150.732 33.736 150.695 33.827C150.657 33.918 150.602 34.0007 150.532 34.0703C150.462 34.14 150.38 34.1952 150.289 34.2329C150.198 34.2706 150.1 34.29 150.002 34.29C149.903 34.29 149.806 34.2706 149.715 34.2329C149.624 34.1952 149.541 34.14 149.471 34.0703C149.402 34.0007 149.346 33.918 149.309 33.827C149.271 33.736 149.252 33.6385 149.252 33.54V33.54Z" fill="black"/>
<path d="M34.04 23.43C34.13 23.3 34.22 23.18 34.32 23.06V23.05C35.06 22.13 35.99 21.37 37.04 20.82C36.68 20.32 36.09 20 35.43 20C34.33 20 33.43 20.9 33.43 22C33.43 22.56 33.66 23.07 34.04 23.43ZM44.96 20.83C46.0122 21.3756 46.9387 22.1352 47.68 23.06L47.771 23.177C47.841 23.264 47.907 23.35 47.97 23.44C48.34 23.08 48.58 22.57 48.58 22.01C48.58 20.91 47.68 20.01 46.58 20.01C45.92 20.01 45.33 20.33 44.96 20.83V20.83ZM37.04 26.5C36.64 26.5 36.316 26.719 36.11 26.994C35.904 27.269 35.79 27.626 35.79 28V29C35.79 29.374 35.904 29.731 36.11 30.006C36.316 30.281 36.64 30.5 37.04 30.5C37.44 30.5 37.764 30.281 37.97 30.006C38.176 29.731 38.29 29.374 38.29 29V28C38.29 27.626 38.176 27.269 37.97 26.994C37.764 26.719 37.44 26.5 37.04 26.5ZM44.96 26.5C44.56 26.5 44.236 26.719 44.03 26.994C43.824 27.269 43.71 27.626 43.71 28V29C43.71 29.374 43.824 29.731 44.03 30.006C44.236 30.281 44.56 30.5 44.96 30.5C45.36 30.5 45.684 30.281 45.89 30.006C46.096 29.731 46.21 29.374 46.21 29V28C46.21 27.626 46.096 27.269 45.89 26.994C45.684 26.719 45.36 26.5 44.96 26.5Z" fill="black"/>
<path d="M54.41 27.7L53.66 27.33C53.5992 27.2954 53.5309 27.2757 53.461 27.2727C53.3911 27.2697 53.3214 27.2835 53.2578 27.3128C53.1943 27.3422 53.1386 27.3862 53.0955 27.4414C53.0524 27.4966 53.0231 27.5612 53.01 27.63C52.97 27.83 53.07 28.04 53.25 28.13L54.25 28.63C54.71 28.86 55 29.33 55 29.84V36.29C55 39.08 53.15 41.53 50.47 42.3L41.59 44.84C41.2 44.95 40.79 44.95 40.41 44.84L31.53 42.3C30.225 41.9256 29.0772 41.1367 28.26 40.0525C27.4428 38.9683 27.0005 37.6477 27 36.29V29.84C27 29.32 27.29 28.85 27.75 28.62L28.75 28.12C28.94 28.03 29.04 27.83 28.99 27.62C28.92 27.32 28.62 27.19 28.34 27.33L27.59 27.7C27.5283 27.7317 27.4595 27.747 27.3901 27.7444C27.3208 27.7419 27.2533 27.7216 27.194 27.6854C27.1348 27.6493 27.0859 27.5986 27.0519 27.5381C27.0179 27.4776 27 27.4094 27 27.34V23.41C27.0013 22.506 27.361 21.6394 28.0002 21.0002C28.6394 20.361 29.506 20.0013 30.41 20H31L30.41 18.23C30.21 17.63 30.66 17 31.3 17H38C38.65 17 39.28 17.21 39.79 17.61C40.51 18.14 40.95 18.97 40.99 19.86H41C41.05 18.97 41.48 18.14 42.2 17.6C42.72 17.21 43.35 17 44 17H50.7C51.34 17 51.79 17.63 51.59 18.23L51 20H51.59C52.494 20.0013 53.3606 20.361 53.9998 21.0002C54.639 21.6394 54.9987 22.506 55 23.41V27.34C55 27.64 54.68 27.84 54.41 27.7ZM47.337 36.843C48.6643 36.5329 49.8476 35.7828 50.6943 34.7146C51.541 33.6464 52.0012 32.3231 52 30.96C52 29.69 51.6 28.44 50.85 27.41L48.55 24.25C49.2 23.68 49.6 22.83 49.57 21.89C49.52 20.29 48.18 19 46.58 19C45.5 19 44.56 19.56 44.03 20.41C43.2186 21.1988 42.1316 21.64 41 21.64C39.8684 21.64 38.7814 21.1988 37.97 20.41C37.6995 19.9779 37.3235 19.6218 36.8774 19.3751C36.4313 19.1284 35.9298 18.9994 35.42 19C33.82 19 32.49 20.29 32.43 21.89C32.4 22.84 32.8 23.68 33.45 24.25L31.15 27.41C30.4003 28.4417 29.9976 29.6847 30 30.96C29.9988 32.3261 30.461 33.6521 31.3111 34.7214C32.1612 35.7908 33.3489 36.5401 34.68 36.847C34.5569 36.1495 34.4966 35.4423 34.5 34.734H34.515C34.4721 34.308 34.5189 33.8778 34.6524 33.4711C34.7858 33.0643 35.0029 32.69 35.2897 32.3721C35.5766 32.0543 35.9267 31.8001 36.3177 31.6258C36.7087 31.4515 37.1319 31.3609 37.56 31.36C37.6222 31.3613 37.684 31.349 37.741 31.3239C37.798 31.2989 37.8489 31.2617 37.89 31.215L37.892 31.213L39.882 28.913C40.02 28.7531 40.1909 28.6247 40.3829 28.5368C40.575 28.4488 40.7838 28.4033 40.995 28.4033C41.2062 28.4033 41.415 28.4488 41.6071 28.5368C41.7992 28.6247 41.97 28.7531 42.108 28.913L44.094 31.209C44.1367 31.2558 44.1885 31.2934 44.2463 31.3194C44.3041 31.3453 44.3666 31.3592 44.43 31.36C44.8588 31.36 45.2829 31.4498 45.6748 31.6237C46.0668 31.7975 46.418 32.0516 46.7058 32.3694C46.9936 32.6873 47.2117 33.0619 47.3459 33.4692C47.4801 33.8764 47.5275 34.3073 47.485 34.734H47.5C47.5 35.496 47.444 36.198 47.337 36.843V36.843ZM40.44 34.72L38.49 32.77C38.3942 32.6765 38.3376 32.5499 38.3318 32.4161C38.3261 32.2824 38.3715 32.1514 38.459 32.05C38.2031 32.2522 37.8861 32.3615 37.56 32.36C36.427 32.36 35.5 33.285 35.5 34.43C35.5 34.979 35.7181 35.5055 36.1063 35.8937C36.4945 36.2819 37.021 36.5 37.57 36.5H38.86C39.575 36.5 40.212 36.13 40.584 35.573L40.997 34.953C40.788 34.9514 40.5879 34.8677 40.44 34.72ZM38.88 31.86H43.15C43.235 31.86 43.313 31.878 43.38 31.91C43.3692 31.8981 43.3585 31.8861 43.348 31.874L43.342 31.867L41.352 29.567C41.3079 29.5155 41.2531 29.4741 41.1915 29.4457C41.1299 29.4174 41.0628 29.4027 40.995 29.4027C40.9272 29.4027 40.8601 29.4174 40.7985 29.4457C40.7369 29.4741 40.6821 29.5155 40.638 29.567L38.65 31.865L38.649 31.866C38.624 31.896 38.598 31.924 38.571 31.95C38.6628 31.8901 38.7704 31.8588 38.88 31.86V31.86ZM43.53 32.77L41.58 34.72C41.4255 34.8701 41.2184 34.9537 41.003 34.953L41.416 35.573C41.788 36.131 42.426 36.5 43.14 36.5H44.43C44.979 36.5 45.5055 36.2819 45.8937 35.8937C46.2819 35.5055 46.5 34.979 46.5 34.43C46.5 33.881 46.2819 33.3545 45.8937 32.9663C45.5055 32.5781 44.979 32.36 44.43 32.36C44.128 32.36 43.838 32.263 43.598 32.095C43.668 32.1975 43.6995 32.3214 43.6871 32.4449C43.6746 32.5684 43.619 32.6835 43.53 32.77V32.77ZM44.43 37.5H43.14C42.3401 37.4994 41.5721 37.1861 41 36.627C40.4279 37.1861 39.6599 37.4994 38.86 37.5H37.57C36.8945 37.501 36.2377 37.2784 35.702 36.867C35.965 38.151 36.472 39.137 37.127 39.857C38.104 40.93 39.462 41.461 41 41.461C42.555 41.461 43.91 40.989 44.878 39.957C45.548 39.244 46.063 38.232 46.32 36.849C45.7808 37.2717 45.1152 37.5009 44.43 37.5V37.5Z" fill="black"/>
<path fill-rule="evenodd" clip-rule="evenodd" d="M149.625 209.666C147.205 210.533 145.088 212.084 143.531 214.13L143.546 214.147L143.13 214.779C141.736 216.896 140.996 219.377 141 221.911C141 225.446 142.4 227.578 144.612 228.89C146.912 230.255 150.192 230.79 154 230.79C157.808 230.79 161.088 230.255 163.388 228.89C165.6 227.578 167 225.446 167 221.91C167.005 219.375 166.265 216.895 164.872 214.777L164.549 214.287C163.002 212.162 160.849 210.553 158.372 209.673C158.373 209.671 158.375 209.668 158.376 209.665C156.971 209.164 155.491 208.909 154 208.911C152.463 208.911 150.99 209.177 149.625 209.666ZM140.23 211.371C140.23 210.304 140.548 209.261 141.143 208.375C141.739 207.489 142.585 206.801 143.573 206.398C144.561 205.995 145.647 205.896 146.692 206.113C147.737 206.33 148.694 206.854 149.44 207.617C150.914 207.148 152.453 206.91 154 206.911C155.547 206.91 157.086 207.148 158.56 207.617C159.49 206.665 160.74 206.093 162.068 206.01C163.396 205.928 164.707 206.341 165.748 207.171C166.789 208 167.484 209.186 167.7 210.499C167.916 211.812 167.636 213.158 166.916 214.277C168.284 216.588 169.004 219.225 169 221.911C169 226.106 167.266 228.914 164.41 230.61C161.642 232.252 157.922 232.79 154 232.79C150.078 232.79 146.358 232.252 143.59 230.61C140.735 228.914 139 226.106 139 221.91C139 219.126 139.76 216.516 141.085 214.28C140.525 213.413 140.228 212.403 140.23 211.371V211.371ZM150.18 223.619C150.407 223.619 150.592 223.804 150.592 224.031C150.592 224.794 151.207 225.409 151.97 225.409C152.733 225.409 153.348 224.794 153.348 224.031C153.348 223.943 153.376 223.857 153.429 223.786C153.481 223.716 153.555 223.663 153.639 223.638C153.723 223.612 153.814 223.614 153.897 223.643C153.98 223.672 154.052 223.727 154.101 223.8C154.172 223.876 154.211 223.977 154.211 224.081C154.211 224.452 154.358 224.808 154.621 225.07C154.883 225.332 155.239 225.48 155.61 225.48C155.98 225.48 156.336 225.332 156.598 225.07C156.861 224.808 157.008 224.452 157.008 224.081C157.013 223.976 157.059 223.876 157.135 223.803C157.212 223.73 157.314 223.69 157.42 223.69C157.525 223.69 157.627 223.73 157.704 223.803C157.78 223.876 157.826 223.976 157.831 224.081C157.831 224.558 157.678 225.023 157.394 225.406C157.11 225.789 156.71 226.07 156.253 226.208C155.797 226.347 155.308 226.334 154.859 226.173C154.41 226.012 154.025 225.71 153.761 225.313C153.557 225.598 153.288 225.83 152.977 225.99C152.665 226.15 152.32 226.233 151.97 226.233C151.681 226.233 151.394 226.177 151.127 226.066C150.86 225.956 150.617 225.793 150.412 225.589C150.208 225.384 150.046 225.141 149.935 224.874C149.825 224.607 149.768 224.32 149.768 224.031C149.768 223.804 149.953 223.619 150.18 223.619V223.619ZM152.87 220.601H154.68C155.46 220.601 155.85 221.541 155.3 222.091L154.4 222.991C154.237 223.154 154.016 223.246 153.785 223.246C153.554 223.246 153.333 223.154 153.17 222.991L152.27 222.091C152.144 221.972 152.057 221.818 152.02 221.649C151.983 221.479 151.998 221.303 152.062 221.142C152.127 220.981 152.239 220.843 152.383 220.747C152.527 220.651 152.697 220.6 152.87 220.601V220.601ZM150.66 221.301C149.953 222.007 148.994 222.404 147.995 222.404C146.996 222.404 146.037 222.007 145.33 221.301C143.86 219.831 144.52 218.101 145.99 216.631C147.46 215.161 149.19 214.501 150.66 215.971C151.366 216.678 151.763 217.637 151.763 218.636C151.763 219.636 151.366 220.594 150.66 221.301ZM149.43 220.431C149.228 220.427 149.036 220.343 148.895 220.197C148.755 220.052 148.678 219.857 148.68 219.655V218.207C148.68 217.789 149.012 217.431 149.43 217.431C149.848 217.431 150.18 217.774 150.18 218.207V219.655C150.182 219.756 150.165 219.855 150.128 219.949C150.092 220.042 150.037 220.128 149.967 220.2C149.897 220.272 149.814 220.33 149.722 220.37C149.63 220.409 149.53 220.43 149.43 220.431ZM162.226 221.301C161.519 222.007 160.56 222.404 159.561 222.404C158.562 222.404 157.603 222.007 156.896 221.301C156.19 220.594 155.793 219.636 155.793 218.636C155.793 217.637 156.19 216.678 156.896 215.971C158.366 214.501 160.096 215.161 161.566 216.631C163.036 218.101 163.696 219.831 162.226 221.301V221.301ZM158.876 219.655C158.878 219.857 158.801 220.052 158.661 220.197C158.52 220.343 158.328 220.427 158.126 220.431C158.026 220.43 157.926 220.409 157.834 220.37C157.742 220.33 157.659 220.272 157.589 220.2C157.519 220.128 157.464 220.042 157.428 219.949C157.391 219.855 157.374 219.756 157.376 219.655V218.207C157.376 217.774 157.707 217.431 158.126 217.431C158.544 217.431 158.876 217.789 158.876 218.207V219.655Z" fill="black"/>
<g filter="url(#filter1_bd_12_2607)">
<path d="M30 2H165C174.941 2 183 10.0589 183 20V230C183 239.941 174.941 248 165 248H30C20.0589 248 12 239.941 12 230V20C12 10.0589 20.0589 2 30 2Z" stroke="black" stroke-width="4" shape-rendering="crispEdges"/>
</g>
<defs>
<filter id="filter0_bd_12_2607" x="-10" y="-20" width="215" height="310" filterUnits="userSpaceOnUse" color-interpolation-filters="sRGB">
<feFlood flood-opacity="0" result="BackgroundImageFix"/>
<feGaussianBlur in="BackgroundImage" stdDeviation="10"/>
<feComposite in2="SourceAlpha" operator="in" result="effect1_backgroundBlur_12_2607"/>
<feColorMatrix in="SourceAlpha" type="matrix" values="0 0 0 0 0 0 0 0 0 0 0 0 0 0 0 0 0 0 127 0" result="hardAlpha"/>
<feOffset dy="20"/>
<feGaussianBlur stdDeviation="10"/>
<feComposite in2="hardAlpha" operator="out"/>
<feColorMatrix type="matrix" values="0 0 0 0 0 0 0 0 0 0 0 0 0 0 0 0 0 0 0.05 0"/>
<feBlend mode="normal" in2="effect1_backgroundBlur_12_2607" result="effect2_dropShadow_12_2607"/>
<feBlend mode="normal" in="SourceGraphic" in2="effect2_dropShadow_12_2607" result="shape"/>
</filter>
<filter id="filter1_bd_12_2607" x="-10" y="-20" width="215" height="310" filterUnits="userSpaceOnUse" color-interpolation-filters="sRGB">
<feFlood flood-opacity="0" result="BackgroundImageFix"/>
<feGaussianBlur in="BackgroundImage" stdDeviation="10"/>
<feComposite in2="SourceAlpha" operator="in" result="effect1_backgroundBlur_12_2607"/>
<feColorMatrix in="SourceAlpha" type="matrix" values="0 0 0 0 0 0 0 0 0 0 0 0 0 0 0 0 0 0 127 0" result="hardAlpha"/>
<feOffset dy="20"/>
<feGaussianBlur stdDeviation="10"/>
<feComposite in2="hardAlpha" operator="out"/>
<feColorMatrix type="matrix" values="0 0 0 0 0 0 0 0 0 0 0 0 0 0 0 0 0 0 0.05 0"/>
<feBlend mode="normal" in2="effect1_backgroundBlur_12_2607" result="effect2_dropShadow_12_2607"/>
<feBlend mode="normal" in="SourceGraphic" in2="effect2_dropShadow_12_2607" result="shape"/>
</filter>
<linearGradient id="paint0_linear_12_2607" x1="-10.721" y1="29.0179" x2="182.379" y2="77.8844" gradientUnits="userSpaceOnUse">
<stop stop-color="white" stop-opacity="0.6"/>
<stop offset="1" stop-color="white" stop-opacity="0.2"/>
</linearGradient>
<clipPath id="clip0_12_2607">
<rect width="32" height="32" fill="white" transform="translate(25 203)"/>
</clipPath>
</defs>
</svg>
